# AST/ASF file generated using VICON BodyLanguage
# -----------------------------------------------
:version 1.10
:name VICON
:units
  mass 1.0
  length 0.45
  angle deg
:documentation
   .ast/.asf automatically generated from VICON data using
   VICON BodyBuilder and BodyLanguage model FoxedUp or BRILLIANT.MOD
:root
   order TX TY TZ RX RY RZ
   axis XYZ
   position 0 0 0  
   orientation 0 -0 0 
:bonedata
  begin
     id 1 
     name lhipjoint
     direction 0.432694 -0.693742 0.575759 
     length 2.19277 
     axis 0 -0 0  XYZ
  end
  begin
     id 2 
     name lfemur
     direction 0.34202 -0.939693 0  
     length 6.69022  
     axis 0 -0 20  XYZ
    dof rx ry rz
    limits (-160.0 20.0)
           (-70.0 70.0)
           (-60.0 70.0)
  end
  begin
     id 3 
     name ltibia
     direction 0.34202 -0.939693 0   
     length 6.50337   
     axis 0 -0 20   XYZ
    dof rx
    limits (-10.0 170.0)
  end
  begin
     id 4 
     name lfoot
     direction 0.158999 -0.435969 0.885805   
     length 2.70564   
     axis -90 -1.13533e-015 20   XYZ
    dof rx rz
    limits (-45.0 90.0)
           (-70.0 20.0)
  end
  begin
     id 5 
     name ltoes
     direction -0.00592919 0.00964381 0.999936   
     length 1.29929   
     axis -90 -1.13533e-015 20   XYZ
    dof rx
    limits (-90.0 20.0)
  end
  begin
     id 6 
     name rhipjoint
     direction -0.414359 -0.700339 0.581234   
     length 2.17212  
     axis 0 -0 0  XYZ 
  end
  begin
     id 7 
     name rfemur
     direction -0.34202 -0.939693 0   
     length 7.17659   
     axis 0 -0 -20   XYZ
    dof rx ry rz
    limits (-160.0 20.0)
           (-70.0 70.0)
           (-70.0 60.0)
  end
  begin
     id 8 
     name rtibia
     direction -0.34202 -0.939693 0   
     length 6.36669   
     axis 0 -0 -20   XYZ
    dof rx
    limits (-10.0 170.0)
 end
 begin
     id 9 
     name rfoot
     direction -0.137064 -0.37658 0.916188   
     length 2.22351  
     axis -90 1.13533e-015 -20   XYZ
    dof rx rz
    limits (-45.0 90.0)
           (-20.0 70.0)
  end
  begin
     id 10 
     name rtoes
     direction -0.000784077 -0.00289101 0.999996   
     length 1.09522   
     axis -90 1.13533e-015 -20   XYZ
    dof rx
    limits (-90.0 20.0)
  end
  begin
     id 11 
     name lowerback
     direction -0.0176242 0.984912 -0.172157   
     length 1.65301   
     axis 0 -0 0   XYZ
    dof rx ry rz
    limits (-20.0 45.0)
           (-30.0 30.0)
           (-30.0 30.0)
  end
  begin
     id 12 
     name upperback
     direction -0.00218128 0.998776 -0.0494072   
     length 1.67776   
     axis 0 -0 0   XYZ
    dof rx ry rz
    limits (-20.0 45.0)
           (-30.0 30.0)
           (-30.0 30.0)
  end
  begin
     id 13 
     name thorax
     direction 0.00544186 0.999658 0.0255711   
     length 1.72293   
     axis 0 -0 0   XYZ
    dof rx ry rz
    limits (-20.0 45.0)
           (-30.0 30.0)
           (-30.0 30.0)
  end
  begin
     id 14 
     name lowerneck
     direction -0.105325 0.983841 0.144785   
     length 2.14226   
     axis 0 -0 0   XYZ
    dof rx ry rz
    limits (-20.0 45.0)
           (-30.0 30.0)
           (-30.0 30.0)
  end
  begin
     id 15 
     name upperneck
     direction 0.0547957 0.988053 -0.144041   
     length 2.17508   
     axis 0 -0 0   XYZ
    dof rx ry rz
    limits (-20.0 45.0)
           (-30.0 30.0)
           (-30.0 30.0)
  end
  begin
     id 16
     name head
     direction 0.0247488 0.997534 -0.0656813  
     length 2.20048  
     axis 0 -0 0   XYZ
    dof rx ry rz
    limits (-20.0 45.0)
           (-30.0 30.0)
           (-30.0 30.0)
  end
  begin
     id 17 
     name lclavicle
     direction 0.820559 0.567247 -0.0701026  
     length 4.09615  
     axis 0 -0 0   XYZ
    dof ry rz
    limits (-20.0 10.0)
           (0.0 20.0)
  end
  begin
     id 18 
     name lhumerus
     direction 0.999977 -0.0067566 -9.96392e-005   
     length 4.59333   
     axis -180 -30 -90   XYZ
    dof rx ry rz
    limits (-60.0 90.0)
           (-90.0 90.0)
           (-90.0 90.0)
  end
  begin
     id 19
     name lradius
     direction 1 -4.48982e-011 -2.53425e-027   
     length 2.81151   
     axis -180 -30 -90   XYZ
    dof rx
    limits (-10.0 170.0)
  end
  begin
     id 20
     name lwrist
     direction 1 -4.48939e-011 -7.39254e-028   
     length 1.40576   
     axis 2.56395e-016 90 90   XYZ
    dof ry
    limits (-180.0 0.0)
 end
  begin
     id 21 
     name lhand
     direction 1 -4.48939e-011 -1.47851e-027   
     length 0.895651   
     axis 9.43423e-016 90 90   XYZ
    dof rx rz
    limits (-90.0 90.0)
           (-45.0 45.0)
  end
  begin
     id 22 
     name lfingers
     direction 1 -4.48978e-011 -2.95702e-027   
     length 0.722097   
     axis 1.88685e-015 90 90   XYZ
    dof rx
    limits (0.0 90.0)
  end
  begin
     id 23
     name lthumb
     direction 0.707107 -6.34931e-011 0.707107   
     length 1.03679   
     axis -90 45 -9.86935e-015   XYZ
    dof rx rz
    limits (-45.0 45.0)
           (-45.0 45.0)
  end
  begin
     id 24 
     name rclavicle
     direction -0.831414 0.553102 -0.0531864   
     length 4.24872  
     axis 0 -0 0   XYZ 
    dof ry rz
    limits (-10.0 20.0)
           (-20.0 0.0)
  end
  begin
     id 25 
     name rhumerus
     direction -0.999916 -0.000939607 0.0129331  
     length 4.74834   
     axis -180 30 90   XYZ
    dof rx ry rz
    limits (-90.0 60.0)
           (-90.0 90.0)
           (-90.0 90.0)
  end
  begin
     id 26 
     name rradius
     direction -1 -4.48956e-011 -1.31752e-027   
     length 2.79907   
     axis -180 30 90   XYZ
    dof rx
    limits (-10.0 170.0)
  end
  begin
     id 27 
     name rwrist
     direction -1 -4.4897e-011 -7.39254e-028   
     length 1.39954   
     axis 2.56395e-016 -90 -90   XYZ
    dof ry
    limits (-180.0 0.0)
  end
  begin
     id 28
     name rhand
     direction -0.999997 -0.00250697 0.000800838   
     length 0.953304   
     axis 9.43423e-016 -90 -90   XYZ
    dof rx rz
    limits (-90.0 90.0)
           (-45.0 45.0)
  end
  begin
     id 29
     name rfingers
     direction -1 -4.48954e-011 -2.95702e-027   
     length 0.763342   
     axis 1.88685e-015 -90 -90   XYZ
    dof rx
    limits (0.0 90.0)
  end
  begin
     id 30
     name rthumb
     direction -0.709701 -0.00217037 0.7045   
     length 1.10115   
     axis -90 -45 9.86935e-015   XYZ
    dof rx rz
    limits (-45.0 45.0)
           (-45.0 45.0)
  end
:hierarchy
  begin
    root lhipjoint rhipjoint lowerback
    lhipjoint lfemur
    lfemur ltibia
    ltibia lfoot
    lfoot ltoes
    rhipjoint rfemur
    rfemur rtibia
    rtibia rfoot
    rfoot rtoes
    lowerback upperback
    upperback thorax
    thorax lowerneck lclavicle rclavicle
    lowerneck upperneck
    upperneck head
    lclavicle lhumerus
    lhumerus lradius
    lradius lwrist
    lwrist lhand lthumb
    lhand lfingers
    rclavicle rhumerus
    rhumerus rradius
    rradius rwrist
    rwrist rhand rthumb
    rhand rfingers
  end

#!OML:ASF G:\ViconDB\ViconDB\414\test\team2\shane.ASF
:FULLY-SPECIFIED
:DEGREES
33
root 1.44814 16.5289 -21.4084 -6.53266 -8.69246 -3.14071
lowerback 11.4079 2.63583 2.67215
upperback 2.06956 3.79436 -0.394037
thorax -4.01815 1.84193 -2.46269
lowerneck -17.6109 -2.88944 -4.64787
upperneck 18.5556 -4.60544 8.44096
head 9.04196 -1.58225 3.06615
rclavicle -2.39536e-014 5.56597e-015
rhumerus -16.6152 27.9766 -94.0869
rradius 81.6861
rwrist 26.2276
rhand -36.6445 -12.783
rfingers 7.12502
rthumb -9.7317 -42.5382
lclavicle -2.39536e-014 5.56597e-015
lhumerus -51.4883 -9.60205 90.6073
lradius 20.2307
lwrist -15.8427
lhand -40.8563 8.85539
lfingers 7.12502
lthumb -13.7931 38.3781
rfemur 20.8712 -2.54238 11.1677
rtibia 43.3626
rfoot 6.92509 -0.0737339
rtoes -6.56847
lfemur -14.9276 18.2042 -12.4741
ltibia 40.6869
lfoot -26.3181 -12.5167
ltoes -7.71595
34
root 1.48792 16.5541 -21.2284 -6.67651 -8.33983 -3.24273
lowerback 11.5156 2.34676 2.59456
upperback 2.1213 3.41154 -0.222164
thorax -4.06125 1.65354 -2.19105
lowerneck -17.7854 -2.79803 -4.92074
upperneck 18.6898 -4.40804 8.44481
head 9.11067 -1.50321 3.14145
rclavicle -3.43401e-014 1.27222e-014
rhumerus -18.0244 28.589 -94.3968
rradius 79.1626
rwrist 25.4028
rhand -36.097 -12.3548
rfingers 7.12502
rthumb -9.20336 -42.134
lclavicle -3.43401e-014 1.27222e-014
lhumerus -50.0529 -9.95135 91.6151
lradius 21.1897
lwrist -15.2652
lhand -41.5831 8.89407
lfingers 7.12502
lthumb -14.4935 38.3679
rfemur 19.1036 -3.36184 11.0195
rtibia 46.707
rfoot 5.14445 -1.79663
rtoes -6.97023
lfemur -13.9276 18.0824 -12.4122
ltibia 40.2408
lfoot -26.4403 -12.8141
ltoes -7.36933
35
root 1.52954 16.5857 -21.048 -6.89079 -7.99387 -2.93569
lowerback 11.5275 2.10982 2.12765
upperback 2.1968 3.04166 -0.184368
thorax -4.03552 1.47733 -1.83587
lowerneck -17.957 -2.66202 -4.86559
upperneck 18.8664 -4.19211 8.23059
head 9.17961 -1.41516 3.08913
rclavicle -3.05631e-014 1.11319e-014
rhumerus -19.5769 29.062 -94.8502
rradius 76.5839
rwrist 24.6946
rhand -35.584 -12.1901
rfingers 7.12502
rthumb -8.70833 -41.9905
lclavicle -3.05631e-014 1.11319e-014
lhumerus -48.496 -10.2953 92.3757
lradius 22.0822
lwrist -15.7194
lhand -41.9589 9.19791
lfingers 7.12502
lthumb -14.8555 38.6453
rfemur 17.3409 -4.22644 10.3667
rtibia 49.758
rfoot 2.83668 -2.99477
rtoes -9.68494
lfemur -12.8306 17.9198 -12.799
ltibia 39.7007
lfoot -26.5963 -13.0865
ltoes -7.17465
36
root 1.5708 16.6118 -20.8737 -7.01974 -7.64321 -2.86383
lowerback 11.4426 1.8446 1.82723
upperback 2.31174 2.66062 0.0373347
thorax -3.91027 1.29564 -1.37572
lowerneck -18.0319 -2.58372 -5.24308
upperneck 18.9191 -3.95686 8.14025
head 9.1983 -1.34069 3.15361
rclavicle 3.13583e-014 -2.38542e-015
rhumerus -21.1774 29.7106 -95.0066
rradius 74.0999
rwrist 23.5815
rhand -35.4828 -12.2397
rfingers 7.12502
rthumb -8.61071 -42.0441
lclavicle 3.13583e-014 -2.38542e-015
lhumerus -46.7102 -10.5034 93.2517
lradius 22.9173
lwrist -15.9522
lhand -42.5868 9.23617
lfingers 7.12502
lthumb -15.4604 38.6379
rfemur 15.5232 -5.10736 10.0251
rtibia 52.491
rfoot 1.04694 -3.30153
rtoes -10.4584
lfemur -11.7495 17.8237 -12.9372
ltibia 39.1025
lfoot -26.8576 -13.2825
ltoes -7.51752
37
root 1.60585 16.6353 -20.7029 -7.22681 -7.55268 -2.82958
lowerback 11.5338 1.69419 1.61934
upperback 2.41655 2.4414 0.14887
thorax -3.87246 1.19057 -1.1127
lowerneck -18.2969 -2.51199 -5.26324
upperneck 19.163 -3.81729 7.96789
head 9.31679 -1.28755 3.11965
rclavicle -1.27968e-014 -1.47101e-014
rhumerus -22.7985 29.8328 -95.3118
rradius 71.307
rwrist 23.6746
rhand -35.3509 -12.2059
rfingers 7.12502
rthumb -8.48345 -42.0155
lclavicle -1.27968e-014 -1.47101e-014
lhumerus -44.9074 -11.1204 93.9745
lradius 23.7644
lwrist -16.5408
lhand -43.3481 9.36604
lfingers 7.12502
lthumb -16.1936 38.7097
rfemur 13.7668 -5.47704 9.97442
rtibia 54.8539
rfoot -0.0990321 -3.12342
rtoes -10.0217
lfemur -10.5083 17.8103 -12.9498
ltibia 38.422
lfoot -26.9898 -13.4754
ltoes -7.45512
38
root 1.64741 16.6582 -20.5323 -7.49796 -7.23871 -2.78604
lowerback 11.6169 1.465 1.53447
upperback 2.5306 2.12886 0.183356
thorax -3.81264 1.03798 -0.984535
lowerneck -18.262 -2.45057 -5.29007
upperneck 19.1565 -3.72653 7.97297
head 9.30174 -1.24767 3.1382
rclavicle -1.30949e-014 3.57812e-015
rhumerus -24.535 29.9356 -95.8306
rradius 68.726
rwrist 22.8078
rhand -35.2724 -12.5591
rfingers 7.12502
rthumb -8.40768 -42.3717
lclavicle -1.30949e-014 3.57812e-015
lhumerus -43.0737 -11.6803 94.4305
lradius 24.6939
lwrist -16.9656
lhand -43.7446 8.84721
lfingers 7.12502
lthumb -16.5753 38.1593
rfemur 12.1396 -6.20944 9.7397
rtibia 56.8666
rfoot -1.58836 -2.53546
rtoes -10.7928
lfemur -9.2401 17.3697 -13.0552
ltibia 37.7433
lfoot -27.0839 -13.4979
ltoes -7.03863
39
root 1.68085 16.6878 -20.3576 -7.61676 -7.07922 -2.73384
lowerback 11.4285 1.32334 1.2834
upperback 2.66457 1.91095 0.285704
thorax -3.58689 0.935305 -0.697934
lowerneck -18.4454 -2.42077 -5.45599
upperneck 19.3197 -3.65812 8.0481
head 9.39124 -1.21439 3.2049
rclavicle -2.05369e-014 5.56597e-015
rhumerus -26.1773 29.9912 -96.141
rradius 66.1686
rwrist 21.9816
rhand -35.0399 -12.4469
rfingers 7.12502
rthumb -8.18328 -42.2684
lclavicle -2.05369e-014 5.56597e-015
lhumerus -41.2376 -12.5041 95.1261
lradius 25.8889
lwrist -17.0197
lhand -44.4603 9.67852
lfingers 7.12502
lthumb -17.2643 38.9317
rfemur 10.3481 -6.69259 9.7227
rtibia 58.5518
rfoot -2.7452 -1.72229
rtoes -11.1647
lfemur -8.06515 17.117 -13.1229
ltibia 37.028
lfoot -27.0513 -13.6085
ltoes -6.51038
40
root 1.71419 16.7065 -20.1961 -7.75694 -6.58904 -2.93314
lowerback 11.4703 1.0426 1.29069
upperback 2.77575 1.54513 0.432178
thorax -3.50513 0.755264 -0.497457
lowerneck -18.6222 -2.34625 -5.37397
upperneck 19.4639 -3.5491 7.91633
head 9.46119 -1.16708 3.16247
rclavicle 1.44367e-014 1.03368e-014
rhumerus -27.9099 29.8843 -96.4275
rradius 63.8835
rwrist 21.7609
rhand -34.995 -13.5134
rfingers 7.12502
rthumb -8.13996 -43.3366
lclavicle 1.44367e-014 1.03368e-014
lhumerus -39.2468 -13.2018 95.5862
lradius 27.1088
lwrist -16.6304
lhand -44.9014 8.92093
lfingers 7.12502
lthumb -17.6888 38.1363
rfemur 8.67373 -7.48076 10.0063
rtibia 59.9635
rfoot -3.90749 -1.01277
rtoes -11.4336
lfemur -6.96554 16.7871 -12.9398
ltibia 36.3157
lfoot -27.1463 -13.9544
ltoes -6.2809
41
root 1.74626 16.7262 -20.0251 -7.88734 -6.18151 -2.99975
lowerback 11.3767 0.761941 1.17791
upperback 2.90866 1.16173 0.55224
thorax -3.3264 0.567682 -0.252152
lowerneck -18.8438 -2.30716 -5.59548
upperneck 19.626 -3.47074 8.08485
head 9.55968 -1.12254 3.27364
rclavicle 3.69491e-014 -2.18663e-015
rhumerus -29.5983 29.5322 -96.6662
rradius 61.6313
rwrist 21.6554
rhand -34.6154 -13.3504
rfingers 7.12502
rthumb -7.77356 -43.1875
lclavicle 3.69491e-014 -2.18663e-015
lhumerus -37.2392 -13.7236 95.8382
lradius 28.5238
lwrist -16.228
lhand -44.9807 8.27082
lfingers 7.12502
lthumb -17.7651 37.4793
rfemur 7.01713 -8.16318 10.1744
rtibia 61.1205
rfoot -5.24681 -0.224674
rtoes -12.0972
lfemur -5.82387 16.3217 -12.956
ltibia 35.5937
lfoot -27.3376 -13.8843
ltoes -6.25421
